<svg xmlns="http://www.w3.org/2000/svg" width="256" height="320" viewBox="0 0 256 320">
  <defs>
    <linearGradient id="pine" x1="0" y1="0" x2="1" y2="1">
      <stop offset="0" stop-color="#32d46d"/><stop offset="0.55" stop-color="#079d55"/><stop offset="1" stop-color="#006b42"/>
    </linearGradient>
    <linearGradient id="wood" x1="0" y1="0" x2="1" y2="0">
      <stop offset="0" stop-color="#9a572d"/><stop offset="1" stop-color="#5c321f"/>
    </linearGradient>
  </defs>
  <ellipse cx="130" cy="292" rx="76" ry="18" fill="#113b28" opacity="0.23"/>
  <path d="M112 292l9-94h23l7 94z" fill="#4b2b1e" stroke="#4b2b1e" stroke-width="9" stroke-linejoin="round"/>
  <path d="M119 288l9-88h10l6 88z" fill="url(#wood)"/>
  <g stroke="#00643c" stroke-width="9" stroke-linejoin="round">
    <path d="M128 30L72 126h27l-53 88h39l-45 67h176l-45-67h39l-53-88h27z" fill="#00643c"/>
  </g>
  <path d="M128 27L80 119h31l-52 86h42l-44 66h142l-44-66h42l-52-86h31z" fill="url(#pine)"/>
  <path d="M128 40l-31 70h26l-39 77h33l-38 69" fill="none" stroke="#73e98d" stroke-width="10" stroke-linecap="round" stroke-linejoin="round" opacity="0.58"/>
  <path d="M153 112c12 18 22 37 29 57M163 193c10 17 18 34 23 51" fill="none" stroke="#004f36" stroke-width="8" stroke-linecap="round" opacity="0.38"/>
  <g fill="#b2f59c" opacity="0.58">
    <circle cx="112" cy="73" r="5"/><circle cx="91" cy="137" r="5"/><circle cx="120" cy="171" r="4"/><circle cx="80" cy="221" r="5"/>
  </g>
</svg>
